<?xml version="1.0" encoding="UTF-8" standalone="no"?>
<svg
   xmlns:dc="http://purl.org/dc/elements/1.1/"
   xmlns:cc="http://creativecommons.org/ns#"
   xmlns:rdf="http://www.w3.org/1999/02/22-rdf-syntax-ns#"
   xmlns:svg="http://www.w3.org/2000/svg"
   xmlns="http://www.w3.org/2000/svg"
   xmlns:xlink="http://www.w3.org/1999/xlink"
   xmlns:sodipodi="http://sodipodi.sourceforge.net/DTD/sodipodi-0.dtd"
   xmlns:inkscape="http://www.inkscape.org/namespaces/inkscape"
   width="932"
   height="370"
   viewBox="0 0 932 370"
   version="1.1"
   id="svg194"
   sodipodi:docname="join_venn_diagram.svg"
   inkscape:version="0.92.4 (5da689c313, 2019-01-14)">
  <metadata
     id="metadata198">
    <rdf:RDF>
      <cc:Work
         rdf:about="">
        <dc:format>image/svg+xml</dc:format>
        <dc:type
           rdf:resource="http://purl.org/dc/dcmitype/StillImage" />
        <dc:title>Frame</dc:title>
      </cc:Work>
    </rdf:RDF>
  </metadata>
  <sodipodi:namedview
     pagecolor="#ffffff"
     bordercolor="#666666"
     borderopacity="1"
     objecttolerance="10"
     gridtolerance="10"
     guidetolerance="10"
     inkscape:pageopacity="0"
     inkscape:pageshadow="2"
     inkscape:window-width="1920"
     inkscape:window-height="1001"
     id="namedview196"
     showgrid="false"
     fit-margin-top="0"
     fit-margin-left="0"
     fit-margin-right="0"
     fit-margin-bottom="0"
     inkscape:zoom="0.50658396"
     inkscape:cx="956.91954"
     inkscape:cy="-89.618911"
     inkscape:window-x="-9"
     inkscape:window-y="-9"
     inkscape:window-maximized="1"
     inkscape:current-layer="Canvas" />
  <title
     id="title2">Frame</title>
  <desc
     id="desc4">Created using Figma</desc>
  <g
     id="Canvas"
     transform="matrix(2,0,0,2,1148,572)">
    <clipPath
       id="clip-0"
       style="clip-rule:evenodd">
      <path
         d="M -588,-313 H 417 V -81 H -588 Z"
         id="path6"
         inkscape:connector-curvature="0"
         style="fill:#ffffff" />
    </clipPath>
    <g
       id="Group">
      <g
         id="Rectangle">
        <use
           height="100%"
           width="100%"
           y="0"
           x="0"
           style="fill:#fdd6d6"
           id="use11"
           transform="translate(-547,-129)"
           xlink:href="#path0_fill" />
      </g>
      <g
         id="a INNER JOIN b">
        <use
           height="100%"
           width="100%"
           y="0"
           x="0"
           style="fill:#d91d1d"
           id="use14"
           transform="translate(-542,-127)"
           xlink:href="#path1_fill" />
      </g>
      <g
         id="Intersect">
        <use
           height="100%"
           width="100%"
           y="0"
           x="0"
           style="fill:#2f80ed"
           id="use17"
           transform="translate(-501.392,-274.13)"
           xlink:href="#path2_fill" />
      </g>
      <g
         id="Subtract">
        <mask
           id="mask0_outline_ins">
          <use
             height="100%"
             width="100%"
             y="0"
             x="0"
             style="fill:#ffffff"
             id="use20"
             transform="translate(-572,-284)"
             xlink:href="#path3_fill" />
        </mask>
        <g
           id="g25"
           mask="url(#mask0_outline_ins)">
          <use
             height="100%"
             width="100%"
             y="0"
             x="0"
             id="use23"
             transform="translate(-572,-284)"
             xlink:href="#path4_stroke_2x" />
        </g>
      </g>
      <g
         id="g35">
        <mask
           id="mask1_outline_ins">
          <use
             height="100%"
             width="100%"
             y="0"
             x="0"
             style="fill:#ffffff"
             id="use28"
             transform="translate(-468.912,-284)"
             xlink:href="#path5_fill" />
        </mask>
        <g
           id="g33"
           mask="url(#mask1_outline_ins)">
          <use
             height="100%"
             width="100%"
             y="0"
             x="0"
             id="use31"
             transform="translate(-468.912,-284)"
             xlink:href="#path6_stroke_2x" />
        </g>
      </g>
      <g
         id="b">
        <use
           height="100%"
           width="100%"
           y="0"
           x="0"
           id="use37"
           transform="translate(-409.601,-228.01)"
           xlink:href="#path7_fill" />
      </g>
      <g
         id="a">
        <use
           height="100%"
           width="100%"
           y="0"
           x="0"
           id="use40"
           transform="translate(-536.696,-226.6)"
           xlink:href="#path8_fill" />
      </g>
    </g>
    <g
       id="g167">
      <g
         id="g130">
        <use
           height="100%"
           width="100%"
           y="0"
           x="0"
           style="fill:#fdd6d6"
           id="use128"
           transform="translate(-298,-127)"
           xlink:href="#path18_fill" />
      </g>
      <g
         id="a LEFT JOIN b">
        <use
           height="100%"
           width="100%"
           y="0"
           x="0"
           style="fill:#d91d1d"
           id="use132"
           transform="translate(-289,-127)"
           xlink:href="#path19_fill" />
      </g>
      <g
         id="g137">
        <use
           height="100%"
           width="100%"
           y="0"
           x="0"
           style="fill:#2f80ed"
           id="use135"
           transform="translate(-248.392,-274.13)"
           xlink:href="#path2_fill" />
      </g>
      <g
         id="g148">
        <use
           height="100%"
           width="100%"
           y="0"
           x="0"
           style="fill:#2f80ed"
           id="use139"
           transform="translate(-319,-284)"
           xlink:href="#path20_fill" />
        <mask
           id="mask6_outline_ins">
          <use
             height="100%"
             width="100%"
             y="0"
             x="0"
             style="fill:#ffffff"
             id="use141"
             transform="translate(-319,-284)"
             xlink:href="#path20_fill" />
        </mask>
        <g
           id="g146"
           mask="url(#mask6_outline_ins)">
          <use
             height="100%"
             width="100%"
             y="0"
             x="0"
             id="use144"
             transform="translate(-319,-284)"
             xlink:href="#path4_stroke_2x" />
        </g>
      </g>
      <g
         id="g157">
        <mask
           id="mask7_outline_ins">
          <use
             height="100%"
             width="100%"
             y="0"
             x="0"
             style="fill:#ffffff"
             id="use150"
             transform="translate(-215.912,-284)"
             xlink:href="#path5_fill" />
        </mask>
        <g
           id="g155"
           mask="url(#mask7_outline_ins)">
          <use
             height="100%"
             width="100%"
             y="0"
             x="0"
             id="use153"
             transform="translate(-215.912,-284)"
             xlink:href="#path6_stroke_2x" />
        </g>
      </g>
      <g
         id="g161">
        <use
           height="100%"
           width="100%"
           y="0"
           x="0"
           id="use159"
           transform="translate(-156.601,-228.01)"
           xlink:href="#path7_fill" />
      </g>
      <g
         id="g165">
        <use
           height="100%"
           width="100%"
           y="0"
           x="0"
           style="fill:#f2f2f2"
           id="use163"
           transform="translate(-283.696,-226.6)"
           xlink:href="#path8_fill" />
      </g>
    </g>
  </g>
  <defs
     id="defs192">
    <path
       id="path0_fill"
       d="M 0,0 H 164 V 26 H 0 Z"
       inkscape:connector-curvature="0" />
    <path
       id="path1_fill"
       d="m 1.098,15.516 c 0,-0.504 0.108,-0.942 0.324,-1.314 C 1.638,13.818 1.98,13.494 2.448,13.23 2.928,12.966 3.54,12.756 4.284,12.6 5.028,12.432 5.928,12.318 6.984,12.258 6.936,11.85 6.756,11.532 6.444,11.304 6.144,11.076 5.688,10.962 5.076,10.962 c -0.432,0 -0.87,0.078 -1.314,0.234 -0.432,0.144 -0.9,0.342 -1.404,0.594 L 1.422,10.062 C 2.034,9.714 2.688,9.426 3.384,9.198 4.092,8.97 4.83,8.856 5.598,8.856 c 1.248,0 2.232,0.33 2.952,0.99 0.72,0.66 1.08,1.674 1.08,3.042 V 18 H 7.47 L 7.272,16.992 H 7.2 C 6.744,17.34 6.246,17.634 5.706,17.874 5.166,18.102 4.608,18.216 4.032,18.216 3.576,18.216 3.168,18.144 2.808,18 2.448,17.868 2.142,17.682 1.89,17.442 1.638,17.19 1.44,16.902 1.296,16.578 1.164,16.254 1.098,15.9 1.098,15.516 Z m 2.538,-0.198 c 0,0.288 0.108,0.504 0.324,0.648 0.228,0.132 0.534,0.198 0.918,0.198 0.396,0 0.768,-0.078 1.116,-0.234 0.348,-0.168 0.678,-0.372 0.99,-0.612 v -1.476 c -0.66,0.036 -1.206,0.096 -1.638,0.18 -0.432,0.084 -0.774,0.192 -1.026,0.324 -0.252,0.12 -0.432,0.264 -0.54,0.432 -0.096,0.168 -0.144,0.348 -0.144,0.54 z m 19.2819,0.45 h 2.736 V 8.496 h -2.736 V 6.264 h 8.136 v 2.232 h -2.736 v 7.272 h 2.736 V 18 h -8.136 z m 10.649,-9.504 h 2.7 l 2.484,5.85 1.008,2.574 h 0.072 c -0.06,-0.624 -0.138,-1.32 -0.234,-2.088 -0.096,-0.768 -0.144,-1.494 -0.144,-2.178 V 6.264 h 2.538 V 18 h -2.7 l -2.484,-5.85 -1.008,-2.556 h -0.072 c 0.06,0.648 0.138,1.344 0.234,2.088 0.096,0.744 0.144,1.464 0.144,2.16 V 18 h -2.538 z m 10.793,0 h 2.7 l 2.484,5.85 1.008,2.574 h 0.072 c -0.06,-0.624 -0.138,-1.32 -0.234,-2.088 -0.096,-0.768 -0.144,-1.494 -0.144,-2.178 V 6.264 h 2.538 V 18 h -2.7 l -2.484,-5.85 -1.008,-2.556 h -0.072 c 0.06,0.648 0.138,1.344 0.234,2.088 0.096,0.744 0.144,1.464 0.144,2.16 V 18 h -2.538 z m 11.2969,0 h 7.74 v 2.232 h -5.094 v 2.358 h 4.32 v 2.214 h -4.32 v 2.7 h 5.274 V 18 h -7.92 z m 13.007,5.4 h 1.296 c 1.428,0 2.142,-0.582 2.142,-1.746 0,-0.576 -0.18,-0.978 -0.54,-1.206 -0.36,-0.228 -0.894,-0.342 -1.602,-0.342 h -1.296 z m 3.636,6.336 -2.25,-4.23 h -1.386 V 18 h -2.646 V 6.264 h 4.158 c 0.624,0 1.206,0.06 1.746,0.18 0.552,0.12 1.032,0.324 1.44,0.612 0.42,0.276 0.75,0.648 0.99,1.116 0.24,0.468 0.36,1.05 0.36,1.746 0,0.864 -0.192,1.578 -0.576,2.142 -0.384,0.552 -0.888,0.966 -1.512,1.242 L 75.2698,18 Z m 16.6359,-3.366 c 0.696,0.864 1.44,1.296 2.232,1.296 0.612,0 1.0681,-0.15 1.3681,-0.45 0.3,-0.312 0.4499,-0.876 0.4499,-1.692 V 8.478 H 88.3958 V 6.264 h 7.2359 v 7.74 c 0,0.576 -0.0779,1.122 -0.2339,1.638 -0.1441,0.504 -0.39,0.948 -0.738,1.332 -0.348,0.384 -0.804,0.69 -1.368,0.918 -0.552,0.216 -1.23,0.324 -2.034,0.324 -0.324,0 -0.66,-0.036 -1.008,-0.108 -0.348,-0.06 -0.6901,-0.168 -1.0261,-0.324 -0.336,-0.156 -0.66,-0.354 -0.9719,-0.594 -0.312,-0.252 -0.5941,-0.558 -0.8461,-0.918 z m 13.6013,3.582 c -0.696,0 -1.338,-0.138 -1.926,-0.414 -0.576,-0.288 -1.0743,-0.696 -1.4943,-1.224 -0.408,-0.528 -0.726,-1.17 -0.954,-1.926 -0.228,-0.756 -0.342,-1.614 -0.342,-2.574 0,-0.96 0.114,-1.812 0.342,-2.556 0.228,-0.756 0.546,-1.386 0.954,-1.89 0.42,-0.516 0.9183,-0.906 1.4943,-1.17 0.588,-0.276 1.23,-0.414 1.926,-0.414 0.696,0 1.332,0.138 1.908,0.414 0.588,0.264 1.086,0.654 1.494,1.17 0.42,0.516 0.744,1.152 0.972,1.908 0.228,0.744 0.342,1.59 0.342,2.538 0,0.96 -0.114,1.818 -0.342,2.574 -0.228,0.756 -0.552,1.398 -0.972,1.926 -0.408,0.528 -0.906,0.936 -1.494,1.224 -0.576,0.276 -1.212,0.414 -1.908,0.414 z m 0,-2.286 c 0.612,0 1.098,-0.342 1.458,-1.026 0.36,-0.696 0.54,-1.638 0.54,-2.826 0,-1.176 -0.18,-2.094 -0.54,-2.754 -0.36,-0.66 -0.846,-0.99 -1.458,-0.99 -0.612,0 -1.098,0.33 -1.458,0.99 -0.36,0.66 -0.54,1.578 -0.54,2.754 0,1.188 0.18,2.13 0.54,2.826 0.36,0.684 0.846,1.026 1.458,1.026 z m 6.725,-0.162 h 2.736 V 8.496 h -2.736 V 6.264 h 8.136 v 2.232 h -2.736 v 7.272 h 2.736 V 18 h -8.136 z m 10.649,-9.504 h 2.7 l 2.484,5.85 1.008,2.574 h 0.072 c -0.06,-0.624 -0.138,-1.32 -0.234,-2.088 -0.096,-0.768 -0.144,-1.494 -0.144,-2.178 V 6.264 h 2.538 V 18 h -2.7 l -2.484,-5.85 -1.008,-2.556 h -0.072 c 0.06,0.648 0.138,1.344 0.234,2.088 0.096,0.744 0.144,1.464 0.144,2.16 V 18 h -2.538 z m 21.694,-0.882 h 2.646 v 3.096 l -0.072,1.404 c 0.348,-0.324 0.738,-0.576 1.17,-0.756 0.444,-0.18 0.882,-0.27 1.314,-0.27 0.552,0 1.05,0.108 1.494,0.324 0.456,0.216 0.834,0.522 1.134,0.918 0.312,0.384 0.552,0.858 0.72,1.422 0.168,0.552 0.252,1.17 0.252,1.854 0,0.768 -0.108,1.452 -0.324,2.052 -0.216,0.6 -0.504,1.11 -0.864,1.53 -0.36,0.408 -0.774,0.72 -1.242,0.936 -0.456,0.216 -0.936,0.324 -1.44,0.324 -0.42,0 -0.84,-0.102 -1.26,-0.306 -0.408,-0.204 -0.798,-0.498 -1.17,-0.882 h -0.072 L 143.675,18 h -2.07 z m 2.646,10.08 c 0.252,0.216 0.51,0.372 0.774,0.468 0.276,0.084 0.534,0.126 0.774,0.126 0.492,0 0.906,-0.204 1.242,-0.612 0.336,-0.42 0.504,-1.092 0.504,-2.016 0,-1.608 -0.546,-2.412 -1.638,-2.412 -0.564,0 -1.116,0.276 -1.656,0.828 z"
       inkscape:connector-curvature="0" />
    <path
       id="path2_fill"
       d="M 33.8919,122.67 C 54.1525,110.427 67.7838,87.5439 67.7838,61.335 67.7838,35.1261 54.1525,12.243 33.8919,0 13.6313,12.243 0,35.1261 0,61.335 0,87.5439 13.6313,110.427 33.8919,122.67 Z"
       inkscape:connector-curvature="0"
       style="fill-rule:evenodd" />
    <path
       id="path3_fill"
       d="M 105.912,9.43164 C 84.8073,21.6214 70.6081,44.405 70.6081,70.5 c 0,26.095 14.1992,48.879 35.3039,61.068 C 95.5266,137.567 83.4689,141 70.6081,141 31.6123,141 0,109.436 0,70.5 0,31.5639 31.6123,0 70.6081,0 83.4689,0 95.5266,3.43314 105.912,9.43164 Z"
       inkscape:connector-curvature="0"
       style="fill-rule:evenodd" />
    <path
       id="path4_stroke_2x"
       d="m 105.912,9.43164 1,1.73186 2.999,-1.73186 -2.999,-1.73188 z m 0,122.13636 1,1.732 2.999,-1.732 -2.999,-1.732 z M 72.6081,70.5 c 0,-25.3507 13.7918,-47.4888 34.3039,-59.3365 l -2,-3.46374 C 83.2147,20.2317 68.6081,43.6607 68.6081,70.5 Z m 34.3039,59.336 C 86.3999,117.989 72.6081,95.8507 72.6081,70.5 h -4 c 0,26.8393 14.6066,50.268 36.3039,62.8 z m -2,0 C 94.7467,135.725 83.1924,139.019 70.6081,139 v 4 c 13.1373,-0.019 25.6984,-3.591 36.3039,-9.7 z M 70.6081,139 C 32.714,139 2,108.329 2,70.5 H -2 C -2,110.544 30.5107,143 70.6081,143 Z M 2,70.5 C 2,32.6714 32.714,2 70.6081,2 V -2 C 30.5107,-2 -2,30.4565 -2,70.5 Z M 70.6081,2 c 12.5843,-0.0192 24.1386,3.27481 34.3039,9.1635 l 2,-3.46374 C 96.3065,1.59147 83.7454,-1.9808 70.6081,-2 Z"
       inkscape:connector-curvature="0" />
    <path
       id="path5_fill"
       d="M 0,131.568 C 21.1048,119.379 35.304,96.595 35.304,70.5 35.304,44.405 21.1048,21.6214 0,9.43164 10.3855,3.43314 22.4433,0 35.3041,0 74.2999,0 105.912,31.5639 105.912,70.5 105.912,109.436 74.2999,141 35.3041,141 22.4433,141 10.3855,137.567 0,131.568 Z"
       inkscape:connector-curvature="0"
       style="fill-rule:evenodd" />
    <path
       id="path6_stroke_2x"
       d="m 0,131.568 -1.0003,-1.732 -2.99849,1.732 2.99849,1.732 z M 0,9.43164 -1.0003,7.69977 -3.99879,9.43164 -1.0003,11.1635 Z M 33.304,70.5 c 0,25.3507 -13.7918,47.489 -34.3043,59.336 L 1.0003,133.3 C 22.6974,120.768 37.304,97.3393 37.304,70.5 Z M -1.0003,11.1635 C 19.5122,23.0112 33.304,45.1493 33.304,70.5 h 4 C 37.304,43.6607 22.6974,20.2317 1.0003,7.69976 Z m 2.0006,0 C 11.1654,5.27481 22.7197,1.9808 35.3041,2 V -2 C 22.1668,-1.9808 9.60561,1.59147 -1.0003,7.69977 Z M 35.3041,2 c 37.8941,0 68.6079,30.6714 68.6079,68.5 h 4 C 107.912,30.4565 75.4015,-2 35.3041,-2 Z m 68.6079,68.5 c 0,37.829 -30.7138,68.5 -68.6079,68.5 v 4 c 40.0974,0 72.6079,-32.456 72.6079,-72.5 z M 35.3041,139 c -12.5844,0.019 -24.1387,-3.275 -34.3038,-9.164 l -2.0006,3.464 c 10.60591,6.109 23.1671,9.681 36.3044,9.7 z"
       inkscape:connector-curvature="0" />
    <path
       id="path7_fill"
       d="m 12.7266,15.7773 c 0,2.0313 -0.4336,3.6172 -1.3008,4.7579 -0.8672,1.1328 -2.07814,1.6992 -3.63283,1.6992 -1.375,0 -2.47266,-0.5274 -3.29297,-1.5821 L 4.34766,22 H 1.30078 V 4 H 4.6875 v 6.457 C 5.46875,9.54297 6.49609,9.08594 7.76953,9.08594 c 1.54688,0 2.75777,0.57031 3.63277,1.71096 0.8829,1.1328 1.3243,2.7304 1.3243,4.7929 z M 9.33984,15.5312 c 0,-1.2812 -0.20312,-2.2148 -0.60937,-2.8007 -0.40625,-0.5938 -1.01172,-0.8907 -1.81641,-0.8907 -1.07812,0 -1.82031,0.4414 -2.22656,1.3243 v 5.0039 c 0.41406,0.8906 1.16406,1.3359 2.25,1.3359 1.09375,0 1.8125,-0.5391 2.15625,-1.6172 0.16406,-0.5156 0.24609,-1.3008 0.24609,-2.3555 z"
       inkscape:connector-curvature="0" />
    <path
       id="path8_fill"
       d="M 8.64844,22 C 8.49219,21.6953 8.37891,21.3164 8.30859,20.8633 c -0.82031,0.914 -1.88671,1.3711 -3.19921,1.3711 -1.24219,0 -2.27344,-0.3594 -3.09376,-1.0782 -0.8125,-0.7187 -1.218745,-1.625 -1.218745,-2.7187 0,-1.3437 0.496095,-2.375 1.488285,-3.0937 1,-0.7188 2.4414,-1.0821 4.32422,-1.0899 h 1.55859 v -0.7266 c 0,-0.5859 -0.15235,-1.0546 -0.45703,-1.4062 -0.29688,-0.3516 -0.76953,-0.5273 -1.41797,-0.5273 -0.57031,0 -1.01953,0.1367 -1.34766,0.4101 -0.32031,0.2734 -0.48047,0.6484 -0.48047,1.125 H 1.07812 c 0,-0.7344 0.22657,-1.4141 0.67969,-2.0391 C 2.21094,10.4648 2.85156,9.97656 3.67969,9.625 4.50781,9.26562 5.4375,9.08594 6.46875,9.08594 c 1.5625,0 2.80078,0.39453 3.71485,1.18356 0.9219,0.7813 1.3828,1.8828 1.3828,3.3047 v 5.4961 c 0.0078,1.2031 0.1758,2.1133 0.5039,2.7305 V 22 Z M 5.84766,19.6445 c 0.5,0 0.96093,-0.1093 1.38281,-0.3281 0.42187,-0.2266 0.73437,-0.5273 0.9375,-0.9023 V 16.2344 H 6.90234 c -1.69531,0 -2.59765,0.5859 -2.70703,1.7578 l -0.01172,0.1992 c 0,0.4219 0.14844,0.7695 0.44532,1.043 0.29687,0.2734 0.70312,0.4101 1.21875,0.4101 z"
       inkscape:connector-curvature="0" />
    <path
       id="path9_fill"
       d="m 1.098,15.516 c 0,-0.504 0.108,-0.942 0.324,-1.314 C 1.638,13.818 1.98,13.494 2.448,13.23 2.928,12.966 3.54,12.756 4.284,12.6 5.028,12.432 5.928,12.318 6.984,12.258 6.936,11.85 6.756,11.532 6.444,11.304 6.144,11.076 5.688,10.962 5.076,10.962 c -0.432,0 -0.87,0.078 -1.314,0.234 -0.432,0.144 -0.9,0.342 -1.404,0.594 L 1.422,10.062 C 2.034,9.714 2.688,9.426 3.384,9.198 4.092,8.97 4.83,8.856 5.598,8.856 c 1.248,0 2.232,0.33 2.952,0.99 0.72,0.66 1.08,1.674 1.08,3.042 V 18 H 7.47 L 7.272,16.992 H 7.2 C 6.744,17.34 6.246,17.634 5.706,17.874 5.166,18.102 4.608,18.216 4.032,18.216 3.576,18.216 3.168,18.144 2.808,18 2.448,17.868 2.142,17.682 1.89,17.442 1.638,17.19 1.44,16.902 1.296,16.578 1.164,16.254 1.098,15.9 1.098,15.516 Z m 2.538,-0.198 c 0,0.288 0.108,0.504 0.324,0.648 0.228,0.132 0.534,0.198 0.918,0.198 0.396,0 0.768,-0.078 1.116,-0.234 0.348,-0.168 0.678,-0.372 0.99,-0.612 v -1.476 c -0.66,0.036 -1.206,0.096 -1.638,0.18 -0.432,0.084 -0.774,0.192 -1.026,0.324 -0.252,0.12 -0.432,0.264 -0.54,0.432 -0.096,0.168 -0.144,0.348 -0.144,0.54 z m 21.8559,-3.654 h 1.296 c 1.428,0 2.142,-0.582 2.142,-1.746 0,-0.576 -0.18,-0.978 -0.54,-1.206 -0.36,-0.228 -0.894,-0.342 -1.602,-0.342 h -1.296 z m 3.636,6.336 -2.25,-4.23 h -1.386 V 18 h -2.646 V 6.264 h 4.158 c 0.624,0 1.206,0.06 1.746,0.18 0.552,0.12 1.032,0.324 1.44,0.612 0.42,0.276 0.75,0.648 0.99,1.116 0.24,0.468 0.36,1.05 0.36,1.746 0,0.864 -0.192,1.578 -0.576,2.142 -0.384,0.552 -0.888,0.966 -1.512,1.242 L 32.0979,18 Z m 4.583,-2.232 h 2.736 V 8.496 h -2.736 V 6.264 h 8.136 v 2.232 h -2.736 v 7.272 h 2.736 V 18 h -8.136 z m 10.253,-3.564 c 0,-0.984 0.138,-1.854 0.414,-2.61 0.288,-0.768 0.672,-1.41 1.152,-1.926 0.492,-0.528 1.068,-0.93 1.728,-1.206 0.66,-0.276 1.368,-0.414 2.124,-0.414 0.792,0 1.464,0.156 2.016,0.468 0.564,0.3 1.038,0.642 1.422,1.026 l -1.458,1.638 c -0.252,-0.252 -0.528,-0.456 -0.828,-0.612 -0.3,-0.156 -0.684,-0.234 -1.152,-0.234 -0.384,0 -0.738,0.09 -1.062,0.27 -0.324,0.168 -0.606,0.414 -0.846,0.738 -0.24,0.324 -0.432,0.72 -0.576,1.188 -0.132,0.468 -0.198,0.996 -0.198,1.584 0,1.212 0.228,2.154 0.684,2.826 0.468,0.66 1.17,0.99 2.106,0.99 0.228,0 0.444,-0.03 0.648,-0.09 0.204,-0.06 0.372,-0.15 0.504,-0.27 v -2.016 h -1.71 v -2.16 h 4.086 v 5.4 c -0.396,0.372 -0.918,0.702 -1.566,0.99 -0.648,0.288 -1.35,0.432 -2.106,0.432 -0.756,0 -1.464,-0.126 -2.124,-0.378 -0.648,-0.264 -1.218,-0.648 -1.71,-1.152 -0.48,-0.504 -0.858,-1.128 -1.134,-1.872 -0.276,-0.756 -0.414,-1.626 -0.414,-2.61 z m 11.1529,-5.94 h 2.646 v 4.518 h 3.204 V 6.264 h 2.646 V 18 h -2.646 v -4.896 h -3.204 V 18 h -2.646 z m 13.709,2.232 h -3.51 V 6.264 h 9.684 v 2.232 h -3.51 V 18 h -2.664 z m 20.1099,6.138 c 0.696,0.864 1.44,1.296 2.232,1.296 0.612,0 1.0681,-0.15 1.3681,-0.45 0.3,-0.312 0.4499,-0.876 0.4499,-1.692 V 8.478 H 88.3958 V 6.264 h 7.2359 v 7.74 c 0,0.576 -0.0779,1.122 -0.2339,1.638 -0.1441,0.504 -0.39,0.948 -0.738,1.332 -0.348,0.384 -0.804,0.69 -1.368,0.918 -0.552,0.216 -1.23,0.324 -2.034,0.324 -0.324,0 -0.66,-0.036 -1.008,-0.108 -0.348,-0.06 -0.6901,-0.168 -1.0261,-0.324 -0.336,-0.156 -0.66,-0.354 -0.9719,-0.594 -0.312,-0.252 -0.5941,-0.558 -0.8461,-0.918 z m 13.6013,3.582 c -0.696,0 -1.338,-0.138 -1.926,-0.414 -0.576,-0.288 -1.0743,-0.696 -1.4943,-1.224 -0.408,-0.528 -0.726,-1.17 -0.954,-1.926 -0.228,-0.756 -0.342,-1.614 -0.342,-2.574 0,-0.96 0.114,-1.812 0.342,-2.556 0.228,-0.756 0.546,-1.386 0.954,-1.89 0.42,-0.516 0.9183,-0.906 1.4943,-1.17 0.588,-0.276 1.23,-0.414 1.926,-0.414 0.696,0 1.332,0.138 1.908,0.414 0.588,0.264 1.086,0.654 1.494,1.17 0.42,0.516 0.744,1.152 0.972,1.908 0.228,0.744 0.342,1.59 0.342,2.538 0,0.96 -0.114,1.818 -0.342,2.574 -0.228,0.756 -0.552,1.398 -0.972,1.926 -0.408,0.528 -0.906,0.936 -1.494,1.224 -0.576,0.276 -1.212,0.414 -1.908,0.414 z m 0,-2.286 c 0.612,0 1.098,-0.342 1.458,-1.026 0.36,-0.696 0.54,-1.638 0.54,-2.826 0,-1.176 -0.18,-2.094 -0.54,-2.754 -0.36,-0.66 -0.846,-0.99 -1.458,-0.99 -0.612,0 -1.098,0.33 -1.458,0.99 -0.36,0.66 -0.54,1.578 -0.54,2.754 0,1.188 0.18,2.13 0.54,2.826 0.36,0.684 0.846,1.026 1.458,1.026 z m 6.725,-0.162 h 2.736 V 8.496 h -2.736 V 6.264 h 8.136 v 2.232 h -2.736 v 7.272 h 2.736 V 18 h -8.136 z m 10.649,-9.504 h 2.7 l 2.484,5.85 1.008,2.574 h 0.072 c -0.06,-0.624 -0.138,-1.32 -0.234,-2.088 -0.096,-0.768 -0.144,-1.494 -0.144,-2.178 V 6.264 h 2.538 V 18 h -2.7 l -2.484,-5.85 -1.008,-2.556 h -0.072 c 0.06,0.648 0.138,1.344 0.234,2.088 0.096,0.744 0.144,1.464 0.144,2.16 V 18 h -2.538 z m 21.694,-0.882 h 2.646 v 3.096 l -0.072,1.404 c 0.348,-0.324 0.738,-0.576 1.17,-0.756 0.444,-0.18 0.882,-0.27 1.314,-0.27 0.552,0 1.05,0.108 1.494,0.324 0.456,0.216 0.834,0.522 1.134,0.918 0.312,0.384 0.552,0.858 0.72,1.422 0.168,0.552 0.252,1.17 0.252,1.854 0,0.768 -0.108,1.452 -0.324,2.052 -0.216,0.6 -0.504,1.11 -0.864,1.53 -0.36,0.408 -0.774,0.72 -1.242,0.936 -0.456,0.216 -0.936,0.324 -1.44,0.324 -0.42,0 -0.84,-0.102 -1.26,-0.306 -0.408,-0.204 -0.798,-0.498 -1.17,-0.882 h -0.072 L 143.675,18 h -2.07 z m 2.646,10.08 c 0.252,0.216 0.51,0.372 0.774,0.468 0.276,0.084 0.534,0.126 0.774,0.126 0.492,0 0.906,-0.204 1.242,-0.612 0.336,-0.42 0.504,-1.092 0.504,-2.016 0,-1.608 -0.546,-2.412 -1.638,-2.412 -0.564,0 -1.116,0.276 -1.656,0.828 z"
       inkscape:connector-curvature="0" />
    <path
       id="path10_fill"
       d="M 1.52588e-5,131.568 C 21.1048,119.379 35.3041,96.595 35.3041,70.5 35.3041,44.4051 21.1048,21.6214 1.52588e-5,9.43164 10.3855,3.43314 22.4433,0 35.3041,0 74.2998,0 105.912,31.5639 105.912,70.5 105.912,109.436 74.2998,141 35.3041,141 22.4433,141 10.3855,137.567 1.52588e-5,131.568 Z"
       inkscape:connector-curvature="0"
       style="fill-rule:evenodd" />
    <path
       id="path11_fill"
       d="M 0,0 H 212 V 26 H 0 Z"
       inkscape:connector-curvature="0" />
    <path
       id="path12_fill"
       d="m 1.098,15.516 c 0,-0.504 0.108,-0.942 0.324,-1.314 C 1.638,13.818 1.98,13.494 2.448,13.23 2.928,12.966 3.54,12.756 4.284,12.6 5.028,12.432 5.928,12.318 6.984,12.258 6.936,11.85 6.756,11.532 6.444,11.304 6.144,11.076 5.688,10.962 5.076,10.962 c -0.432,0 -0.87,0.078 -1.314,0.234 -0.432,0.144 -0.9,0.342 -1.404,0.594 L 1.422,10.062 C 2.034,9.714 2.688,9.426 3.384,9.198 4.092,8.97 4.83,8.856 5.598,8.856 c 1.248,0 2.232,0.33 2.952,0.99 0.72,0.66 1.08,1.674 1.08,3.042 V 18 H 7.47 L 7.272,16.992 H 7.2 C 6.744,17.34 6.246,17.634 5.706,17.874 5.166,18.102 4.608,18.216 4.032,18.216 3.576,18.216 3.168,18.144 2.808,18 2.448,17.868 2.142,17.682 1.89,17.442 1.638,17.19 1.44,16.902 1.296,16.578 1.164,16.254 1.098,15.9 1.098,15.516 Z m 2.538,-0.198 c 0,0.288 0.108,0.504 0.324,0.648 0.228,0.132 0.534,0.198 0.918,0.198 0.396,0 0.768,-0.078 1.116,-0.234 0.348,-0.168 0.678,-0.372 0.99,-0.612 v -1.476 c -0.66,0.036 -1.206,0.096 -1.638,0.18 -0.432,0.084 -0.774,0.192 -1.026,0.324 -0.252,0.12 -0.432,0.264 -0.54,0.432 -0.096,0.168 -0.144,0.348 -0.144,0.54 z M 23.5299,6.264 h 7.74 v 2.232 h -5.094 v 2.718 h 4.338 v 2.232 h -4.338 V 18 h -2.646 z m 10.001,0 h 2.646 v 7.488 c 0,0.708 0.132,1.248 0.396,1.62 0.264,0.372 0.678,0.558 1.242,0.558 0.564,0 0.978,-0.186 1.242,-0.558 0.276,-0.372 0.414,-0.912 0.414,-1.62 V 6.264 h 2.556 v 7.218 c 0,1.536 -0.348,2.712 -1.044,3.528 -0.684,0.804 -1.74,1.206 -3.168,1.206 -1.44,0 -2.514,-0.402 -3.222,-1.206 -0.708,-0.816 -1.062,-1.992 -1.062,-3.528 z m 11.567,0 h 2.646 v 9.504 h 5.22 V 18 h -7.866 z m 10.7929,0 h 2.646 v 9.504 h 5.22 V 18 h -7.866 z m 25.06,11.952 c -0.696,0 -1.338,-0.138 -1.926,-0.414 -0.576,-0.288 -1.074,-0.696 -1.494,-1.224 -0.408,-0.528 -0.726,-1.17 -0.954,-1.926 -0.228,-0.756 -0.342,-1.614 -0.342,-2.574 0,-0.96 0.114,-1.812 0.342,-2.556 0.228,-0.756 0.546,-1.386 0.954,-1.89 0.42,-0.516 0.918,-0.906 1.494,-1.17 0.588,-0.276 1.23,-0.414 1.926,-0.414 0.696,0 1.332,0.138 1.908,0.414 0.588,0.264 1.086,0.654 1.494,1.17 0.42,0.516 0.744,1.152 0.972,1.908 0.228,0.744 0.342,1.59 0.342,2.538 0,0.96 -0.114,1.818 -0.342,2.574 -0.228,0.756 -0.552,1.398 -0.972,1.926 -0.408,0.528 -0.906,0.936 -1.494,1.224 -0.576,0.276 -1.212,0.414 -1.908,0.414 z m 0,-2.286 c 0.612,0 1.098,-0.342 1.458,-1.026 0.36,-0.696 0.54,-1.638 0.54,-2.826 0,-1.176 -0.18,-2.094 -0.54,-2.754 -0.36,-0.66 -0.846,-0.99 -1.458,-0.99 -0.612,0 -1.098,0.33 -1.458,0.99 -0.36,0.66 -0.54,1.578 -0.54,2.754 0,1.188 0.18,2.13 0.54,2.826 0.36,0.684 0.846,1.026 1.458,1.026 z m 6.545,-9.666 h 2.646 v 7.488 c 0,0.708 0.132,1.248 0.396,1.62 0.2639,0.372 0.678,0.558 1.242,0.558 0.564,0 0.978,-0.186 1.2419,-0.558 0.276,-0.372 0.414,-0.912 0.414,-1.62 V 6.264 h 2.556 v 7.218 c 0,1.536 -0.348,2.712 -1.044,3.528 -0.6839,0.804 -1.7399,1.206 -3.1679,1.206 -1.44,0 -2.5141,-0.402 -3.2221,-1.206 -0.7079,-0.816 -1.0619,-1.992 -1.0619,-3.528 z M 101.205,8.496 H 97.6947 V 6.264 h 9.6843 v 2.232 h -3.51 V 18 h -2.664 z m 8.417,-2.232 h 7.74 v 2.232 h -5.094 v 2.358 h 4.32 v 2.214 h -4.32 v 2.7 h 5.274 V 18 h -7.92 z m 13.007,5.4 h 1.296 c 1.428,0 2.142,-0.582 2.142,-1.746 0,-0.576 -0.18,-0.978 -0.54,-1.206 -0.36,-0.228 -0.894,-0.342 -1.602,-0.342 h -1.296 z m 3.636,6.336 -2.25,-4.23 h -1.386 V 18 h -2.646 V 6.264 h 4.158 c 0.624,0 1.206,0.06 1.746,0.18 0.552,0.12 1.032,0.324 1.44,0.612 0.42,0.276 0.75,0.648 0.99,1.116 0.24,0.468 0.36,1.05 0.36,1.746 0,0.864 -0.192,1.578 -0.576,2.142 -0.384,0.552 -0.888,0.966 -1.512,1.242 L 129.235,18 Z m 16.636,-3.366 c 0.696,0.864 1.44,1.296 2.232,1.296 0.612,0 1.068,-0.15 1.368,-0.45 0.3,-0.312 0.45,-0.876 0.45,-1.692 v -5.31 h -4.59 V 6.264 h 7.236 v 7.74 c 0,0.576 -0.078,1.122 -0.234,1.638 -0.144,0.504 -0.39,0.948 -0.738,1.332 -0.348,0.384 -0.804,0.69 -1.368,0.918 -0.552,0.216 -1.23,0.324 -2.034,0.324 -0.324,0 -0.66,-0.036 -1.008,-0.108 -0.348,-0.06 -0.69,-0.168 -1.026,-0.324 -0.336,-0.156 -0.66,-0.354 -0.972,-0.594 -0.312,-0.252 -0.594,-0.558 -0.846,-0.918 z m 13.601,3.582 c -0.696,0 -1.338,-0.138 -1.926,-0.414 -0.576,-0.288 -1.074,-0.696 -1.494,-1.224 -0.408,-0.528 -0.726,-1.17 -0.954,-1.926 -0.228,-0.756 -0.342,-1.614 -0.342,-2.574 0,-0.96 0.114,-1.812 0.342,-2.556 0.228,-0.756 0.546,-1.386 0.954,-1.89 0.42,-0.516 0.918,-0.906 1.494,-1.17 0.588,-0.276 1.23,-0.414 1.926,-0.414 0.696,0 1.332,0.138 1.908,0.414 0.588,0.264 1.086,0.654 1.494,1.17 0.42,0.516 0.744,1.152 0.972,1.908 0.228,0.744 0.342,1.59 0.342,2.538 0,0.96 -0.114,1.818 -0.342,2.574 -0.228,0.756 -0.552,1.398 -0.972,1.926 -0.408,0.528 -0.906,0.936 -1.494,1.224 -0.576,0.276 -1.212,0.414 -1.908,0.414 z m 0,-2.286 c 0.612,0 1.098,-0.342 1.458,-1.026 0.36,-0.696 0.54,-1.638 0.54,-2.826 0,-1.176 -0.18,-2.094 -0.54,-2.754 -0.36,-0.66 -0.846,-0.99 -1.458,-0.99 -0.612,0 -1.098,0.33 -1.458,0.99 -0.36,0.66 -0.54,1.578 -0.54,2.754 0,1.188 0.18,2.13 0.54,2.826 0.36,0.684 0.846,1.026 1.458,1.026 z m 6.725,-0.162 h 2.736 V 8.496 h -2.736 V 6.264 h 8.136 v 2.232 h -2.736 v 7.272 h 2.736 V 18 h -8.136 z m 10.648,-9.504 h 2.701 l 2.484,5.85 1.007,2.574 h 0.072 c -0.06,-0.624 -0.138,-1.32 -0.234,-2.088 -0.096,-0.768 -0.143,-1.494 -0.143,-2.178 V 6.264 h 2.537 V 18 H 179.6 l -2.485,-5.85 -1.008,-2.556 h -0.071 c 0.06,0.648 0.137,1.344 0.233,2.088 0.096,0.744 0.144,1.464 0.144,2.16 V 18 h -2.538 z m 21.694,-0.882 h 2.646 v 3.096 l -0.072,1.404 c 0.348,-0.324 0.738,-0.576 1.17,-0.756 0.444,-0.18 0.882,-0.27 1.314,-0.27 0.552,0 1.05,0.108 1.494,0.324 0.456,0.216 0.834,0.522 1.134,0.918 0.312,0.384 0.552,0.858 0.72,1.422 0.168,0.552 0.252,1.17 0.252,1.854 0,0.768 -0.108,1.452 -0.324,2.052 -0.216,0.6 -0.504,1.11 -0.864,1.53 -0.36,0.408 -0.774,0.72 -1.242,0.936 -0.456,0.216 -0.936,0.324 -1.44,0.324 -0.42,0 -0.84,-0.102 -1.26,-0.306 -0.408,-0.204 -0.798,-0.498 -1.17,-0.882 h -0.072 L 197.639,18 h -2.07 z m 2.646,10.08 c 0.252,0.216 0.51,0.372 0.774,0.468 0.276,0.084 0.534,0.126 0.774,0.126 0.492,0 0.906,-0.204 1.242,-0.612 0.336,-0.42 0.504,-1.092 0.504,-2.016 0,-1.608 -0.546,-2.412 -1.638,-2.412 -0.564,0 -1.116,0.276 -1.656,0.828 z"
       inkscape:connector-curvature="0" />
    <path
       id="path13_fill"
       d="M 33.8919,122.67 C 54.1525,110.427 67.7838,87.5439 67.7838,61.335 67.7838,35.1261 54.1525,12.243 33.8919,0 13.6313,12.243 0,35.1261 0,61.335 0,87.5439 13.6313,110.427 33.8919,122.67 Z"
       inkscape:connector-curvature="0"
       style="fill-rule:evenodd" />
    <path
       id="path14_fill"
       d="M 105.912,9.43164 C 84.8074,21.6214 70.6081,44.405 70.6081,70.5 c 0,26.095 14.1993,48.879 35.3039,61.068 C 95.5267,137.567 83.4689,141 70.6081,141 31.6123,141 0,109.436 0,70.5 0,31.5639 31.6123,0 70.6081,0 83.4689,0 95.5267,3.43314 105.912,9.43164 Z"
       inkscape:connector-curvature="0"
       style="fill-rule:evenodd" />
    <path
       id="path15_stroke_2x"
       d="m 105.912,9.43164 1,1.73186 2.999,-1.73186 -2.999,-1.73187 z m 0,122.13636 1,1.732 2.999,-1.732 -2.999,-1.732 z M 72.6081,70.5 c 0,-25.3506 13.7919,-47.4888 34.3039,-59.3365 l -2,-3.46374 C 83.2148,20.2317 68.6081,43.6607 68.6081,70.5 Z m 34.3039,59.336 C 86.4,117.989 72.6081,95.8507 72.6081,70.5 h -4 c 0,26.8393 14.6067,50.268 36.3039,62.8 z m -2,0 C 94.7468,135.725 83.1924,139.019 70.6081,139 v 4 c 13.1373,-0.019 25.6985,-3.591 36.3039,-9.7 z M 70.6081,139 C 32.714,139 2,108.329 2,70.5 H -2 C -2,110.544 30.5106,143 70.6081,143 Z M 2,70.5 C 2,32.6714 32.714,2 70.6081,2 V -2 C 30.5106,-2 -2,30.4565 -2,70.5 Z M 70.6081,2 c 12.5843,-0.0192 24.1387,3.27481 34.3039,9.1635 l 2,-3.46373 C 96.3066,1.59147 83.7454,-1.9808 70.6081,-2 Z"
       inkscape:connector-curvature="0" />
    <path
       id="path16_fill"
       d="M 0,131.568 C 21.1048,119.379 35.304,96.595 35.304,70.5 35.304,44.4051 21.1048,21.6215 0,9.43167 10.3855,3.43317 22.4432,0 35.3041,0 74.2999,0 105.912,31.5639 105.912,70.5 105.912,109.436 74.2999,141 35.3041,141 22.4432,141 10.3855,137.567 0,131.568 Z"
       inkscape:connector-curvature="0"
       style="fill-rule:evenodd" />
    <path
       id="path17_stroke_2x"
       d="m 0,131.568 -1.0003,-1.732 -2.99849,1.732 2.99849,1.732 z M 0,9.43164 -1.0003,7.69977 -3.99879,9.43164 -1.0003,11.1635 Z M 33.3041,70.5 c 0,25.3507 -13.7919,47.489 -34.3044,59.336 L 1.0003,133.3 C 22.6974,120.768 37.3041,97.3393 37.3041,70.5 Z M -1.0003,11.1635 C 19.5122,23.0112 33.3041,45.1494 33.3041,70.5 h 4 C 37.3041,43.6607 22.6974,20.2317 1.0003,7.69976 Z m 2.0006,0 C 11.1654,5.27481 22.7197,1.9808 35.3041,2 V -2 C 22.1668,-1.9808 9.60561,1.59147 -1.0003,7.69977 Z M 35.3041,2 c 37.894,0 68.6079,30.6714 68.6079,68.5 h 4 C 107.912,30.4565 75.4015,-2 35.3041,-2 Z m 68.6079,68.5 c 0,37.829 -30.7139,68.5 -68.6079,68.5 v 4 c 40.0974,0 72.6079,-32.456 72.6079,-72.5 z M 35.3041,139 c -12.5844,0.019 -24.1387,-3.275 -34.3038,-9.164 l -2.0006,3.464 c 10.60591,6.109 23.1671,9.681 36.3044,9.7 z"
       inkscape:connector-curvature="0" />
    <path
       id="path18_fill"
       d="M 0,0 H 159 V 26 H 0 Z"
       inkscape:connector-curvature="0" />
    <path
       id="path19_fill"
       d="m 1.098,15.516 c 0,-0.504 0.108,-0.942 0.324,-1.314 C 1.638,13.818 1.98,13.494 2.448,13.23 2.928,12.966 3.54,12.756 4.284,12.6 5.028,12.432 5.928,12.318 6.984,12.258 6.936,11.85 6.756,11.532 6.444,11.304 6.144,11.076 5.688,10.962 5.076,10.962 c -0.432,0 -0.87,0.078 -1.314,0.234 -0.432,0.144 -0.9,0.342 -1.404,0.594 L 1.422,10.062 C 2.034,9.714 2.688,9.426 3.384,9.198 4.092,8.97 4.83,8.856 5.598,8.856 c 1.248,0 2.232,0.33 2.952,0.99 0.72,0.66 1.08,1.674 1.08,3.042 V 18 H 7.47 L 7.272,16.992 H 7.2 C 6.744,17.34 6.246,17.634 5.706,17.874 5.166,18.102 4.608,18.216 4.032,18.216 3.576,18.216 3.168,18.144 2.808,18 2.448,17.868 2.142,17.682 1.89,17.442 1.638,17.19 1.44,16.902 1.296,16.578 1.164,16.254 1.098,15.9 1.098,15.516 Z m 2.538,-0.198 c 0,0.288 0.108,0.504 0.324,0.648 0.228,0.132 0.534,0.198 0.918,0.198 0.396,0 0.768,-0.078 1.116,-0.234 0.348,-0.168 0.678,-0.372 0.99,-0.612 v -1.476 c -0.66,0.036 -1.206,0.096 -1.638,0.18 -0.432,0.084 -0.774,0.192 -1.026,0.324 -0.252,0.12 -0.432,0.264 -0.54,0.432 -0.096,0.168 -0.144,0.348 -0.144,0.54 z M 23.5119,6.264 h 2.646 v 9.504 h 5.22 V 18 h -7.866 z m 10.559,0 h 7.74 v 2.232 h -5.094 v 2.358 h 4.32 v 2.214 h -4.32 v 2.7 h 5.274 V 18 h -7.92 z m 11.045,0 h 7.74 v 2.232 h -5.094 v 2.718 h 4.338 v 2.232 h -4.338 V 18 h -2.646 z m 12.9169,2.232 h -3.51 V 6.264 h 9.684 v 2.232 h -3.51 V 18 h -2.664 z m 20.11,6.138 c 0.696,0.864 1.44,1.296 2.232,1.296 0.612,0 1.068,-0.15 1.368,-0.45 0.3,-0.312 0.45,-0.876 0.45,-1.692 v -5.31 h -4.59 V 6.264 h 7.236 v 7.74 c 0,0.576 -0.078,1.122 -0.234,1.638 -0.144,0.504 -0.39,0.948 -0.738,1.332 -0.348,0.384 -0.804,0.69 -1.368,0.918 -0.552,0.216 -1.23,0.324 -2.034,0.324 -0.324,0 -0.66,-0.036 -1.008,-0.108 -0.348,-0.06 -0.69,-0.168 -1.026,-0.324 -0.336,-0.156 -0.66,-0.354 -0.972,-0.594 -0.312,-0.252 -0.594,-0.558 -0.846,-0.918 z m 13.601,3.582 c -0.696,0 -1.3381,-0.138 -1.926,-0.414 -0.576,-0.288 -1.074,-0.696 -1.494,-1.224 -0.408,-0.528 -0.7261,-1.17 -0.9541,-1.926 -0.2279,-0.756 -0.342,-1.614 -0.342,-2.574 0,-0.96 0.1141,-1.812 0.342,-2.556 0.228,-0.756 0.5461,-1.386 0.9541,-1.89 0.42,-0.516 0.918,-0.906 1.494,-1.17 0.5879,-0.276 1.23,-0.414 1.926,-0.414 0.696,0 1.3319,0.138 1.908,0.414 0.588,0.264 1.0859,0.654 1.4939,1.17 0.42,0.516 0.7441,1.152 0.9721,1.908 0.2279,0.744 0.3419,1.59 0.3419,2.538 0,0.96 -0.114,1.818 -0.3419,2.574 -0.228,0.756 -0.5521,1.398 -0.9721,1.926 -0.408,0.528 -0.9059,0.936 -1.4939,1.224 -0.5761,0.276 -1.212,0.414 -1.908,0.414 z m 0,-2.286 c 0.612,0 1.098,-0.342 1.458,-1.026 0.36,-0.696 0.5399,-1.638 0.5399,-2.826 0,-1.176 -0.1799,-2.094 -0.5399,-2.754 -0.36,-0.66 -0.846,-0.99 -1.458,-0.99 -0.612,0 -1.098,0.33 -1.458,0.99 -0.36,0.66 -0.54,1.578 -0.54,2.754 0,1.188 0.18,2.13 0.54,2.826 0.36,0.684 0.846,1.026 1.458,1.026 z m 6.7249,-0.162 h 2.7363 V 8.496 H 98.4687 V 6.264 h 8.1363 v 2.232 h -2.736 v 7.272 h 2.736 V 18 H 98.4687 Z M 109.118,6.264 h 2.7 l 2.484,5.85 1.008,2.574 h 0.072 c -0.06,-0.624 -0.138,-1.32 -0.234,-2.088 -0.096,-0.768 -0.144,-1.494 -0.144,-2.178 V 6.264 h 2.538 V 18 h -2.7 l -2.484,-5.85 -1.008,-2.556 h -0.072 c 0.06,0.648 0.138,1.344 0.234,2.088 0.096,0.744 0.144,1.464 0.144,2.16 V 18 h -2.538 z m 21.694,-0.882 h 2.646 v 3.096 l -0.072,1.404 c 0.348,-0.324 0.738,-0.576 1.17,-0.756 0.444,-0.18 0.882,-0.27 1.314,-0.27 0.552,0 1.05,0.108 1.494,0.324 0.456,0.216 0.834,0.522 1.134,0.918 0.312,0.384 0.552,0.858 0.72,1.422 0.168,0.552 0.252,1.17 0.252,1.854 0,0.768 -0.108,1.452 -0.324,2.052 -0.216,0.6 -0.504,1.11 -0.864,1.53 -0.36,0.408 -0.774,0.72 -1.242,0.936 -0.456,0.216 -0.936,0.324 -1.44,0.324 -0.42,0 -0.84,-0.102 -1.26,-0.306 -0.408,-0.204 -0.798,-0.498 -1.17,-0.882 h -0.072 L 132.882,18 h -2.07 z m 2.646,10.08 c 0.252,0.216 0.51,0.372 0.774,0.468 0.276,0.084 0.534,0.126 0.774,0.126 0.492,0 0.906,-0.204 1.242,-0.612 0.336,-0.42 0.504,-1.092 0.504,-2.016 0,-1.608 -0.546,-2.412 -1.638,-2.412 -0.564,0 -1.116,0.276 -1.656,0.828 z"
       inkscape:connector-curvature="0" />
    <path
       id="path20_fill"
       d="M 105.912,9.43164 C 84.8074,21.6214 70.6081,44.4051 70.6081,70.5 c 0,26.095 14.1993,48.879 35.3039,61.068 C 95.5266,137.567 83.4689,141 70.6081,141 31.6123,141 0,109.436 0,70.5 0,31.5639 31.6123,0 70.6081,0 83.4689,0 95.5266,3.43314 105.912,9.43164 Z"
       inkscape:connector-curvature="0"
       style="fill-rule:evenodd" />
  </defs>
</svg>
